<?xml version="1.0" encoding="UTF-8"?>
<svg width="64px" height="27px" viewBox="0 0 64 27" version="1.1" xmlns="http://www.w3.org/2000/svg" xmlns:xlink="http://www.w3.org/1999/xlink">
    <title>LOGO</title>
    <g id="Symbols" stroke="none" stroke-width="1" fill="none" fill-rule="evenodd">
        <g id="Logo" transform="translate(-1.000000, -9.000000)" fill="#FFFFFF" fill-rule="nonzero">
            <path d="M9.624,35 L9.624,31.508 L5.376,31.508 L5.376,9.8 L1.524,9.8 L1.524,35 L9.624,35 Z M22.76,35.216 C25.892,35.216 27.44,33.668 27.44,30.536 L27.44,14.264 C27.44,11.132 25.892,9.584 22.76,9.584 L20.708,9.584 C17.576,9.584 16.028,11.132 16.028,14.264 L16.028,30.536 C16.028,33.668 17.576,35.216 20.708,35.216 L22.76,35.216 Z M22.148,31.832 L21.356,31.832 C20.348,31.832 19.88,31.364 19.88,30.356 L19.88,14.444 C19.88,13.436 20.348,12.968 21.356,12.968 L22.148,12.968 C23.12,12.968 23.588,13.436 23.588,14.444 L23.588,30.356 C23.588,31.364 23.12,31.832 22.148,31.832 Z M41.332,35.216 C44.464,35.216 46.012,33.668 46.012,30.536 L46.012,21.248 L40.252,21.248 L40.252,24.56 L42.268,24.56 L42.268,30.356 C42.268,31.364 41.8,31.832 40.792,31.832 L39.928,31.832 C38.92,31.832 38.452,31.364 38.452,30.356 L38.452,14.444 C38.452,13.436 38.92,12.968 39.928,12.968 L40.72,12.968 C41.692,12.968 42.16,13.436 42.16,14.444 L42.16,18.296 L45.94,18.296 L45.94,14.228 C45.94,11.132 44.428,9.584 41.296,9.584 L39.28,9.584 C36.148,9.584 34.6,11.132 34.6,14.264 L34.6,30.536 C34.6,33.668 36.148,35.216 39.28,35.216 L41.332,35.216 Z M59.868,35.216 C63,35.216 64.548,33.668 64.548,30.536 L64.548,14.264 C64.548,11.132 63,9.584 59.868,9.584 L57.816,9.584 C54.684,9.584 53.136,11.132 53.136,14.264 L53.136,30.536 C53.136,33.668 54.684,35.216 57.816,35.216 L59.868,35.216 Z M59.256,31.832 L58.464,31.832 C57.456,31.832 56.988,31.364 56.988,30.356 L56.988,14.444 C56.988,13.436 57.456,12.968 58.464,12.968 L59.256,12.968 C60.228,12.968 60.696,13.436 60.696,14.444 L60.696,30.356 C60.696,31.364 60.228,31.832 59.256,31.832 Z" id="LOGO"></path>
        </g>
    </g>
</svg>